<?xml version="1.0" encoding="UTF-8"?>
<svg xmlns="http://www.w3.org/2000/svg" width="512" height="512" viewBox="0 0 512 512" role="img" aria-label="News aggregator favicon logo, smooth monochrome">
  <rect width="512" height="512" fill="#000000"/>
  <path fill="#ffffff" fill-rule="evenodd" d="M 75.25 358.38 Q 72.00 358.25 71.62 361.88 Q 71.25 365.50 71.38 370.12 Q 71.50 374.75 72.00 378.12 Q 72.50 381.50 73.88 386.62 Q 75.25 391.75 76.50 394.88 Q 77.75 398.00 80.38 402.75 Q 83.00 407.50 87.12 412.75 Q 91.25 418.00 96.62 422.75 Q 102.00 427.50 105.50 429.75 Q 109.00 432.00 113.75 434.25 Q 118.50 436.50 122.75 437.88 Q 127.00 439.25 131.75 440.12 Q 136.50 441.00 143.50 441.00 Q 150.50 441.00 150.62 439.38 Q 150.75 437.75 149.75 426.12 Q 148.75 414.50 142.12 414.00 Q 135.50 413.50 131.12 412.12 Q 126.75 410.75 121.88 407.88 Q 117.00 405.00 113.62 401.88 Q 110.25 398.75 107.38 394.88 Q 104.50 391.00 102.25 385.75 Q 100.00 380.50 99.12 375.88 Q 98.25 371.25 98.25 366.25 Q 98.25 361.25 88.38 359.88 Q 78.50 358.50 75.25 358.38 Z
    M 42.25 354.25 Q 29.00 352.50 28.50 355.50 Q 28.00 358.50 28.00 367.25 Q 28.00 376.00 28.88 382.62 Q 29.75 389.25 31.50 396.25 Q 33.25 403.25 35.50 409.12 Q 37.75 415.00 41.00 421.25 Q 44.25 427.50 47.88 432.88 Q 51.50 438.25 55.62 443.12 Q 59.75 448.00 64.62 452.62 Q 69.50 457.25 74.62 461.12 Q 79.75 465.00 84.25 467.75 Q 88.75 470.50 96.38 474.00 Q 104.00 477.50 109.50 479.25 Q 115.00 481.00 121.62 482.38 Q 128.25 483.75 141.00 483.75 Q 153.75 483.75 153.12 472.25 Q 152.50 460.75 152.12 459.25 Q 151.75 457.75 146.00 457.75 Q 140.25 457.75 134.00 457.00 Q 127.75 456.25 122.50 454.88 Q 117.25 453.50 112.62 451.75 Q 108.00 450.00 103.12 447.38 Q 98.25 444.75 93.75 441.62 Q 89.25 438.50 84.00 433.62 Q 78.75 428.75 76.00 425.50 Q 73.25 422.25 70.12 417.62 Q 67.00 413.00 64.88 408.88 Q 62.75 404.75 60.12 397.25 Q 57.50 389.75 56.50 384.75 Q 55.50 379.75 55.12 375.50 Q 54.75 371.25 55.12 363.62 Q 55.50 356.00 42.25 354.25 Z
    M 255.88 106.25 Q 245.00 106.25 237.50 107.12 Q 230.00 108.00 223.25 109.38 Q 216.50 110.75 208.88 113.12 Q 201.25 115.50 194.12 118.50 Q 187.00 121.50 180.50 125.00 Q 174.00 128.50 166.12 133.88 Q 158.25 139.25 152.00 144.62 Q 145.75 150.00 141.25 154.62 Q 136.75 159.25 132.25 164.75 Q 127.75 170.25 123.75 176.12 Q 119.75 182.00 115.75 189.25 Q 111.75 196.50 108.62 203.88 Q 105.50 211.25 103.25 218.50 Q 101.00 225.75 99.25 234.62 Q 97.50 243.50 96.75 254.38 Q 96.00 265.25 96.25 272.12 Q 96.50 279.00 97.88 288.62 Q 99.25 298.25 101.00 305.12 Q 102.75 312.00 105.50 319.62 Q 108.25 327.25 111.88 334.75 Q 115.50 342.25 119.38 348.62 Q 123.25 355.00 127.75 361.00 Q 132.25 367.00 136.12 371.38 Q 140.00 375.75 147.38 382.62 Q 154.75 389.50 161.38 394.38 Q 168.00 399.25 174.75 403.25 Q 181.50 407.25 188.12 410.38 Q 194.75 413.50 202.00 416.12 Q 209.25 418.75 216.75 420.62 Q 224.25 422.50 232.62 423.75 Q 241.00 425.00 245.88 425.25 Q 250.75 425.50 260.75 425.25 Q 270.75 425.00 277.25 424.12 Q 283.75 423.25 293.12 421.00 Q 302.50 418.75 308.88 416.50 Q 315.25 414.25 322.75 410.75 Q 330.25 407.25 337.00 403.25 Q 343.75 399.25 350.50 394.25 Q 357.25 389.25 361.75 385.25 Q 366.25 381.25 372.88 374.12 Q 379.50 367.00 383.62 361.50 Q 387.75 356.00 392.12 348.88 Q 396.50 341.75 400.00 334.38 Q 403.50 327.00 406.25 319.38 Q 409.00 311.75 410.75 304.88 Q 412.50 298.00 413.75 289.62 Q 415.00 281.25 415.12 267.25 Q 415.25 253.25 413.88 243.38 Q 412.50 233.50 410.75 226.62 Q 409.00 219.75 406.25 212.12 Q 403.50 204.50 400.00 197.12 Q 396.50 189.75 392.38 183.00 Q 388.25 176.25 383.88 170.38 Q 379.50 164.50 375.12 159.62 Q 370.75 154.75 364.88 149.25 Q 359.00 143.75 353.88 139.75 Q 348.75 135.75 341.75 131.25 Q 334.75 126.75 326.75 122.75 Q 318.75 118.75 311.75 116.12 Q 304.75 113.50 298.38 111.75 Q 292.00 110.00 284.38 108.62 Q 276.75 107.25 271.75 106.75 Q 266.75 106.25 255.88 106.25 Z
    M 337.00 361.38 Q 344.00 364.25 343.75 364.88 Q 343.50 365.50 337.25 370.38 Q 331.00 375.25 325.38 378.75 Q 319.75 382.25 319.00 382.12 Q 318.25 382.00 320.38 378.38 Q 322.50 374.75 326.25 366.62 Q 330.00 358.50 337.00 361.38 Z
    M 168.75 365.62 Q 167.50 364.25 170.88 362.62 Q 174.25 361.00 178.00 359.75 Q 181.75 358.50 184.12 363.88 Q 186.50 369.25 189.88 375.62 Q 193.25 382.00 192.62 382.12 Q 192.00 382.25 185.62 378.25 Q 179.25 374.25 174.62 370.62 Q 170.00 367.00 168.75 365.62 Z
    M 296.62 349.62 Q 302.50 350.75 302.88 351.12 Q 303.25 351.50 300.50 357.62 Q 297.75 363.75 293.12 371.00 Q 288.50 378.25 283.75 383.38 Q 279.00 388.50 276.12 390.75 Q 273.25 393.00 271.50 393.88 Q 269.75 394.75 269.50 394.50 Q 269.25 394.25 269.25 370.75 Q 269.25 347.25 269.62 346.88 Q 270.00 346.50 273.00 346.62 Q 276.00 346.75 283.38 347.62 Q 290.75 348.50 296.62 349.62 Z
    M 208.75 351.50 Q 209.00 350.75 221.00 348.88 Q 233.00 347.00 237.38 346.75 Q 241.75 346.50 242.12 346.88 Q 242.50 347.25 242.50 370.75 Q 242.50 394.25 242.25 394.50 Q 242.00 394.75 240.25 393.88 Q 238.50 393.00 235.75 390.88 Q 233.00 388.75 228.38 383.88 Q 223.75 379.00 219.00 371.62 Q 214.25 364.25 211.38 358.25 Q 208.50 352.25 208.75 351.50 Z
    M 366.75 279.25 Q 387.25 279.25 387.50 280.88 Q 387.75 282.50 386.75 288.25 Q 385.75 294.00 383.12 303.00 Q 380.50 312.00 376.88 320.00 Q 373.25 328.00 368.75 335.25 Q 364.25 342.50 363.50 342.88 Q 362.75 343.25 357.50 340.62 Q 352.25 338.00 345.75 335.62 Q 339.25 333.25 338.62 332.50 Q 338.00 331.75 339.12 327.50 Q 340.25 323.25 341.62 315.62 Q 343.00 308.00 344.38 293.88 Q 345.75 279.75 346.00 279.50 Q 346.25 279.25 366.75 279.25 Z
    M 269.50 279.50 Q 269.75 279.25 293.88 279.25 Q 318.00 279.25 318.25 279.50 Q 318.50 279.75 317.50 291.38 Q 316.50 303.00 314.62 312.88 Q 312.75 322.75 312.00 324.00 Q 311.25 325.25 303.50 323.62 Q 295.75 322.00 282.88 320.75 Q 270.00 319.50 269.62 319.12 Q 269.25 318.75 269.25 299.25 Q 269.25 279.75 269.50 279.50 Z
    M 194.25 291.62 Q 193.25 279.75 193.50 279.50 Q 193.75 279.25 217.75 279.25 Q 241.75 279.25 242.12 279.62 Q 242.50 280.00 242.50 299.25 Q 242.50 318.50 242.00 319.00 Q 241.50 319.50 232.12 320.25 Q 222.75 321.00 211.50 323.00 Q 200.25 325.00 199.75 324.38 Q 199.25 323.75 197.25 313.62 Q 195.25 303.50 194.25 291.62 Z
    M 124.25 281.00 Q 124.50 279.25 145.00 279.25 Q 165.50 279.25 165.75 279.50 Q 166.00 279.75 166.88 290.38 Q 167.75 301.00 169.12 309.88 Q 170.50 318.75 172.00 325.00 Q 173.50 331.25 173.25 332.00 Q 173.00 332.75 167.25 334.88 Q 161.50 337.00 155.38 340.00 Q 149.25 343.00 148.38 342.75 Q 147.50 342.50 143.38 336.00 Q 139.25 329.50 134.88 319.75 Q 130.50 310.00 127.75 299.62 Q 125.00 289.25 124.50 286.00 Q 124.00 282.75 124.25 281.00 Z
    M 199.00 209.88 Q 200.00 206.75 210.12 208.50 Q 220.25 210.25 230.75 211.12 Q 241.25 212.00 241.88 212.38 Q 242.50 212.75 242.50 232.25 Q 242.50 251.75 242.25 252.00 Q 242.00 252.25 217.88 252.25 Q 193.75 252.25 193.38 251.88 Q 193.00 251.50 194.12 239.88 Q 195.25 228.25 196.62 220.62 Q 198.00 213.00 199.00 209.88 Z
    M 303.75 208.00 Q 311.50 206.50 312.12 207.62 Q 312.75 208.75 314.62 218.62 Q 316.50 228.50 317.50 240.12 Q 318.50 251.75 318.25 252.00 Q 318.00 252.25 293.88 252.25 Q 269.75 252.25 269.50 252.00 Q 269.25 251.75 269.25 232.25 Q 269.25 212.75 269.75 212.38 Q 270.25 212.00 283.12 210.75 Q 296.00 209.50 303.75 208.00 Z
    M 166.75 196.50 Q 172.75 198.75 173.12 199.50 Q 173.50 200.25 172.00 206.62 Q 170.50 213.00 169.12 221.75 Q 167.75 230.50 166.88 241.12 Q 166.00 251.75 165.75 252.00 Q 165.50 252.25 145.00 252.25 Q 124.50 252.25 124.12 251.75 Q 123.75 251.25 124.38 246.75 Q 125.00 242.25 127.62 232.25 Q 130.25 222.25 134.38 212.88 Q 138.50 203.50 142.75 196.62 Q 147.00 189.75 147.88 189.12 Q 148.75 188.50 154.75 191.38 Q 160.75 194.25 166.75 196.50 Z
    M 338.25 199.25 Q 338.50 198.75 345.25 196.12 Q 352.00 193.50 357.38 190.88 Q 362.75 188.25 363.38 188.50 Q 364.00 188.75 368.75 196.38 Q 373.50 204.00 377.38 212.88 Q 381.25 221.75 384.00 232.12 Q 386.75 242.50 387.25 245.75 Q 387.75 249.00 387.50 250.62 Q 387.25 252.25 366.75 252.25 Q 346.25 252.25 345.88 251.88 Q 345.50 251.50 344.75 241.12 Q 344.00 230.75 342.62 222.00 Q 341.25 213.25 339.62 206.50 Q 338.00 199.75 338.25 199.25 Z
    M 324.12 161.25 Q 318.25 149.50 318.75 149.25 Q 319.25 149.00 325.12 152.62 Q 331.00 156.25 335.00 159.25 Q 339.00 162.25 341.50 164.75 Q 344.00 167.25 337.00 170.12 Q 330.00 173.00 324.12 161.25 Z
    M 193.00 149.25 Q 193.50 149.50 191.38 153.12 Q 189.25 156.75 185.50 164.88 Q 181.75 173.00 178.75 172.12 Q 175.75 171.25 171.50 169.25 Q 167.25 167.25 174.00 161.75 Q 180.75 156.25 186.62 152.62 Q 192.50 149.00 193.00 149.25 Z
    M 269.50 137.00 Q 269.75 136.75 273.50 139.12 Q 277.25 141.50 282.75 147.25 Q 288.25 153.00 293.00 160.38 Q 297.75 167.75 300.38 173.25 Q 303.00 178.75 302.88 179.75 Q 302.75 180.75 290.88 182.62 Q 279.00 184.50 274.50 184.75 Q 270.00 185.00 269.62 184.62 Q 269.25 184.25 269.25 160.75 Q 269.25 137.25 269.50 137.00 Z
    M 238.38 139.00 Q 242.00 136.75 242.25 137.00 Q 242.50 137.25 242.50 160.75 Q 242.50 184.25 242.12 184.62 Q 241.75 185.00 237.00 184.75 Q 232.25 184.50 220.62 182.75 Q 209.00 181.00 208.88 179.88 Q 208.75 178.75 211.38 173.25 Q 214.00 167.75 218.62 160.50 Q 223.25 153.25 229.00 147.25 Q 234.75 141.25 238.38 139.00 Z
    M 359.75 72.62 Q 357.25 73.00 358.88 86.12 Q 360.50 99.25 365.88 99.25 Q 371.25 99.25 375.62 100.12 Q 380.00 101.00 384.25 102.75 Q 388.50 104.50 393.00 107.62 Q 397.50 110.75 401.12 114.75 Q 404.75 118.75 407.38 123.38 Q 410.00 128.00 411.38 132.62 Q 412.75 137.25 413.25 143.50 Q 413.75 149.75 426.38 150.75 Q 439.00 151.75 439.62 151.50 Q 440.25 151.25 440.12 144.00 Q 440.00 136.75 439.12 132.12 Q 438.25 127.50 437.00 123.62 Q 435.75 119.75 433.88 115.62 Q 432.00 111.50 429.88 108.00 Q 427.75 104.50 425.38 101.38 Q 423.00 98.25 420.00 95.12 Q 417.00 92.00 410.50 87.12 Q 404.00 82.25 397.25 79.12 Q 390.50 76.00 382.75 74.25 Q 375.00 72.50 368.62 72.38 Q 362.25 72.25 359.75 72.62 Z
    M 356.75 29.38 Q 351.50 30.00 353.25 43.12 Q 355.00 56.25 363.25 56.00 Q 371.50 55.75 375.50 56.12 Q 379.50 56.50 384.00 57.38 Q 388.50 58.25 394.00 60.00 Q 399.50 61.75 403.62 63.62 Q 407.75 65.50 412.75 68.50 Q 417.75 71.50 422.88 75.62 Q 428.00 79.75 431.50 83.38 Q 435.00 87.00 438.38 91.38 Q 441.75 95.75 443.50 98.62 Q 445.25 101.50 448.50 108.50 Q 451.75 115.50 453.12 120.12 Q 454.50 124.75 455.38 129.38 Q 456.25 134.00 456.62 138.38 Q 457.00 142.75 456.88 147.62 Q 456.75 152.50 457.00 152.75 Q 457.25 153.00 470.38 153.88 Q 483.50 154.75 483.62 146.12 Q 483.75 137.50 483.25 133.12 Q 482.75 128.75 481.50 122.62 Q 480.25 116.50 478.00 109.62 Q 475.75 102.75 473.50 97.75 Q 471.25 92.75 467.62 86.62 Q 464.00 80.50 460.12 75.38 Q 456.25 70.25 451.88 65.62 Q 447.50 61.00 441.50 56.00 Q 435.50 51.00 430.12 47.50 Q 424.75 44.00 419.25 41.25 Q 413.75 38.50 407.00 36.00 Q 400.25 33.50 394.62 32.12 Q 389.00 30.75 382.50 29.88 Q 376.00 29.00 369.00 28.88 Q 362.00 28.75 356.75 29.38 Z"/>
</svg>
